<?xml version="1.0" standalone="no"?><svg xmlns="http://www.w3.org/2000/svg" viewBox="0 0 1440 320"><path fill="#0099ff" fill-opacity="0.9" d="M0,64L24,64C48,64,96,64,144,74.7C192,85,240,107,288,144C336,181,384,235,432,224C480,213,528,139,576,138.7C624,139,672,213,720,208C768,203,816,117,864,106.7C912,96,960,160,1008,154.7C1056,149,1104,75,1152,58.7C1200,43,1248,85,1296,85.3C1344,85,1392,43,1416,21.3L1440,0L1440,320L1416,320C1392,320,1344,320,1296,320C1248,320,1200,320,1152,320C1104,320,1056,320,1008,320C960,320,912,320,864,320C816,320,768,320,720,320C672,320,624,320,576,320C528,320,480,320,432,320C384,320,336,320,288,320C240,320,192,320,144,320C96,320,48,320,24,320L0,320Z"></path></svg>